<svg aria-hidden="true" style="width:0;height:0;position:absolute;overflow:hidden" xmlns="http://www.w3.org/2000/svg"><defs><symbol id="icon-heart" viewBox="0 0 32 32"><path stroke-linejoin="round" stroke-linecap="round" stroke-width="2" d="M9.333 4c-3.681 0-6.667 2.955-6.667 6.6 0 2.943 1.167 9.927 12.651 16.987a1.316 1.316 0 0 0 1.366 0c11.484-7.06 12.651-14.044 12.651-16.987 0-3.645-2.985-6.6-6.667-6.6S16 8 16 8s-2.985-4-6.667-4z"/></symbol><symbol id="icon-arrow-down" viewBox="0 0 32 32"><path d="M3.76 9.143 0 12.622l16 14.806 16-14.806-3.76-3.479L16 20.445 3.76 9.143z"/></symbol><symbol id="icon-arrow-up" viewBox="0 0 32 32"><path d="M3.76 25.143 0 21.664 16 6.858l16 14.806-3.76 3.479L16 13.841 3.76 25.143z"/></symbol><symbol id="icon-bx_search" viewBox="0 0 32 32"><path d="M13.333 23.6c2.367 0 4.665-.753 6.529-2.138l5.861 5.568 1.885-1.791-5.861-5.568a9.755 9.755 0 0 0 2.252-6.204c0-5.587-4.785-10.133-10.667-10.133S2.665 7.88 2.665 13.467c0 5.587 4.785 10.133 10.667 10.133zm0-17.733c4.412 0 8 3.409 8 7.6s-3.588 7.6-8 7.6-8-3.409-8-7.6 3.588-7.6 8-7.6z"/></symbol><symbol id="icon-calendar" viewBox="0 0 32 32"><path d="M22.667 4H28a1.335 1.335 0 0 1 1.334 1.334v21.333A1.335 1.335 0 0 1 28 28.001H4a1.33 1.33 0 0 1-1.333-1.334V5.334A1.333 1.333 0 0 1 4 4h5.333V1.333H12V4h8V1.333h2.667V4zm4 10.667H5.334v10.667h21.333V14.667zm-6.667-8h-8v2.667H9.333V6.667h-4V12h21.333V6.667h-4v2.667h-2.667V6.667zM8 17.333h2.667V20H8v-2.667zm6.667 0h2.667V20h-2.667v-2.667zm6.666 0H24V20h-2.667v-2.667z"/></symbol><symbol id="icon-moon" viewBox="0 0 32 32"><path stroke-linejoin="round" stroke-linecap="round" stroke-width="2.286" d="M28 17.053a11.994 11.994 0 0 1-7.873 10.182A12.003 12.003 0 0 1 4.338 18.56 12.002 12.002 0 0 1 14.946 3.999 9.335 9.335 0 0 0 28 17.053z"/></symbol><symbol id="icon-sun" viewBox="0 0 32 32"><path stroke-linejoin="round" stroke-linecap="round" stroke-width="2.286" d="M16 1.778v2.586m0 23.272v2.586M5.941 5.941l1.836 1.836m16.446 16.446 1.836 1.836M1.778 16h2.586m23.272 0h2.586M5.941 26.059l1.836-1.836M24.223 7.777l1.836-1.836M22.465 16a6.465 6.465 0 1 1-12.93 0 6.465 6.465 0 0 1 12.93 0z"/></symbol><symbol id="icon-location" viewBox="0 0 32 32"><path d="M16 2A11.018 11.018 0 0 0 5 13a10.892 10.892 0 0 0 2.216 6.6s.3.395.349.452L16 30l8.439-9.953c.044-.053.345-.447.345-.447l.001-.003A10.89 10.89 0 0 0 27 13 11.018 11.018 0 0 0 16 2zm0 15a4.004 4.004 0 0 1-3.695-2.469A4 4 0 1 1 20 13a4.004 4.004 0 0 1-4 4z"/></symbol><symbol id="arow-cal-left" viewBox="0 0 16 32"><path d="M0 16c0 .596.204 1.107.642 1.55l12.192 12.982c.345.375.784.579 1.301.579 1.034 0 1.865-.886 1.865-2.027 0-.562-.219-1.056-.564-1.448L4.451 16 15.436 4.364c.345-.392.564-.903.564-1.448 0-1.141-.831-2.027-1.865-2.027-.517 0-.956.204-1.301.579L.642 14.433C.203 14.893 0 15.404 0 16z"/></symbol><symbol id="arow-cal-month" viewBox="0 0 19 32"><path d="M18.667 16c0-.764-.266-1.385-.886-1.971L4.197.71C3.737.231 3.17 0 2.479 0A2.474 2.474 0 0 0 0 2.468c0 .675.283 1.296.779 1.794l12.043 11.72L.779 27.738A2.462 2.462 0 0 0 0 29.532 2.475 2.475 0 0 0 2.479 32c.673 0 1.257-.231 1.718-.71l13.584-13.318c.62-.586.886-1.225.886-1.971z"/></symbol><symbol id="arow-cal-right" viewBox="0 0 16 32"><path d="M16 16a2.309 2.309 0 0 0-.643-1.567L3.165 1.468c-.36-.375-.784-.579-1.301-.579-1.05 0-1.865.886-1.865 2.027 0 .545.204 1.056.564 1.448L11.533 16 .563 27.636a2.1 2.1 0 0 0-.564 1.448c0 1.142.815 2.027 1.865 2.027.501 0 .94-.204 1.301-.579L15.357 17.55c.439-.443.642-.954.642-1.55z"/></symbol><symbol id="arow-mobile" viewBox="0 0 18 32"><path stroke-linejoin="round" stroke-linecap="round" stroke-width="4.571" d="M2.286 29.714 16 16 2.286 2.286"/></symbol><symbol id="arow-pag-left" viewBox="0 0 19 32"><path d="m6.787 16 11.88 11.88-3.394 3.394L-.001 16 15.273.726l3.394 3.394L6.787 16z"/></symbol><symbol id="arow-pag-right" viewBox="0 0 21 32"><path d="M10.669 16 0 5.336 5.332 0l16.001 16L5.332 32 0 26.664 10.669 16z"/></symbol><symbol id="icon-favorite" viewBox="0 0 32 32"><path fill="#4440f6" style="fill:var(--color1,#4440f6)" d="M32 16c0 8.837-7.163 16-16 16S0 24.837 0 16 7.163 0 16 0s16 7.163 16 16z"/><path fill="none" stroke="#f4f4f4" style="stroke:var(--color2,#f4f4f4)" stroke-linejoin="round" stroke-linecap="round" d="M22.63 10.457a4.111 4.111 0 0 0-4.496-.895 4.1 4.1 0 0 0-1.338.895l-.795.795-.795-.795a4.125 4.125 0 0 0-5.836 0 4.125 4.125 0 0 0 0 5.835l6.63 6.63 6.63-6.63a4.111 4.111 0 0 0 .895-4.496 4.116 4.116 0 0 0-.895-1.338v0z"/></symbol><symbol id="icon-home" viewBox="0 0 32 32"><path fill="#4440f6" style="fill:var(--color1,#4440f6)" d="M32 16c0 8.837-7.163 16-16 16S0 24.837 0 16 7.163 0 16 0s16 7.163 16 16z"/><path fill="none" stroke="#f4f4f4" style="stroke:var(--color2,#f4f4f4)" stroke-linejoin="round" stroke-linecap="round" d="M9.25 13.75 16 8.5l6.75 5.25V22a1.503 1.503 0 0 1-1.5 1.5h-10.5a1.503 1.503 0 0 1-1.5-1.5v-8.25z"/><path fill="none" stroke="#f4f4f4" style="stroke:var(--color2,#f4f4f4)" stroke-linejoin="round" stroke-linecap="round" d="M13.75 23.5V16h4.5v7.5"/></symbol><symbol id="icon-read" viewBox="0 0 32 32"><path fill="#4440f6" style="fill:var(--color1,#4440f6)" d="M32 16c0 8.837-7.163 16-16 16S0 24.837 0 16 7.163 0 16 0s16 7.163 16 16z"/><path fill="none" stroke="#f4f4f4" style="stroke:var(--color2,#f4f4f4)" stroke-linejoin="round" stroke-linecap="round" d="M8.5 9.25H13a3.004 3.004 0 0 1 3 3v10.5a2.25 2.25 0 0 0-2.25-2.25H8.5V9.25zm15 0H19a3.004 3.004 0 0 0-3 3v10.5a2.25 2.25 0 0 1 2.25-2.25h5.25V9.25z"/></symbol></defs></svg>